<?xml version="1.0" encoding="UTF-8"?>
<svg xmlns="http://www.w3.org/2000/svg" xmlns:xlink="http://www.w3.org/1999/xlink" width="40px" height="40px" viewBox="0 0 40 40" version="1.1">
<g id="surface1">
<path style=" stroke:none;fill-rule:nonzero;fill:rgb(0%,0%,0%);fill-opacity:1;" d="M 35.148438 2.941406 C 35.148438 2.949219 35.179688 2.964844 35.222656 2.972656 C 35.261719 2.984375 35.289062 2.976562 35.273438 2.960938 C 35.253906 2.925781 35.148438 2.910156 35.148438 2.941406 Z M 35.148438 2.941406 "/>
<path style=" stroke:none;fill-rule:nonzero;fill:rgb(0%,0%,0%);fill-opacity:1;" d="M 0.0585938 6.5 C 0.0742188 6.53125 0.0898438 6.554688 0.0976562 6.554688 C 0.105469 6.554688 0.109375 6.53125 0.109375 6.5 C 0.109375 6.46875 0.0976562 6.445312 0.0742188 6.445312 C 0.0546875 6.445312 0.046875 6.46875 0.0585938 6.5 Z M 0.0585938 6.5 "/>
<path style=" stroke:none;fill-rule:nonzero;fill:rgb(0%,0%,0%);fill-opacity:1;" d="M 4.207031 10.367188 C 4.195312 10.386719 4.210938 10.40625 4.242188 10.417969 C 4.273438 10.433594 4.285156 10.421875 4.269531 10.386719 C 4.25 10.324219 4.234375 10.320312 4.207031 10.367188 Z M 4.207031 10.367188 "/>
<path style=" stroke:none;fill-rule:nonzero;fill:rgb(0%,0%,0%);fill-opacity:1;" d="M 28.238281 10.757812 L 28.132812 10.84375 L 28.179688 11.207031 C 28.207031 11.410156 28.234375 11.609375 28.238281 11.65625 C 28.246094 11.703125 28.238281 11.742188 28.222656 11.742188 C 28.207031 11.742188 28.195312 11.761719 28.191406 11.785156 C 28.179688 11.996094 28.148438 12.152344 28.117188 12.210938 C 28.101562 12.25 28.089844 12.308594 28.097656 12.34375 C 28.101562 12.386719 28.097656 12.402344 28.085938 12.394531 C 28.054688 12.363281 27.929688 12.605469 27.929688 12.6875 C 27.933594 12.730469 27.90625 12.832031 27.878906 12.925781 L 27.824219 13.09375 L 27.957031 13.207031 C 28.066406 13.304688 28.105469 13.320312 28.21875 13.300781 C 28.386719 13.269531 28.945312 13.28125 29.09375 13.320312 C 29.15625 13.332031 29.246094 13.375 29.296875 13.40625 C 29.347656 13.445312 29.421875 13.480469 29.464844 13.488281 C 29.503906 13.496094 29.535156 13.523438 29.53125 13.542969 C 29.519531 13.597656 29.710938 13.742188 29.933594 13.847656 C 30.078125 13.917969 30.117188 13.921875 30.179688 13.882812 C 30.28125 13.820312 30.339844 13.671875 30.3125 13.554688 C 30.253906 13.328125 30.234375 12.648438 30.28125 12.554688 C 30.304688 12.503906 30.347656 12.390625 30.375 12.296875 C 30.398438 12.203125 30.484375 12.019531 30.5625 11.882812 C 30.640625 11.746094 30.703125 11.605469 30.703125 11.582031 C 30.703125 11.550781 30.640625 11.488281 30.566406 11.4375 C 30.429688 11.347656 30.375 11.335938 29.777344 11.273438 C 29.667969 11.261719 29.539062 11.242188 29.5 11.226562 C 29.226562 11.113281 28.980469 10.976562 28.8125 10.839844 C 28.742188 10.785156 28.671875 10.726562 28.648438 10.710938 C 28.566406 10.648438 28.34375 10.675781 28.238281 10.757812 Z M 29.152344 11.847656 C 29.234375 11.890625 29.390625 11.941406 29.492188 11.964844 C 29.714844 12.007812 29.816406 12.058594 29.757812 12.101562 C 29.742188 12.117188 29.714844 12.171875 29.707031 12.222656 C 29.703125 12.273438 29.679688 12.34375 29.664062 12.378906 C 29.644531 12.410156 29.628906 12.519531 29.628906 12.613281 L 29.628906 12.785156 L 29.511719 12.761719 C 29.445312 12.75 29.386719 12.726562 29.371094 12.710938 C 29.347656 12.679688 29.324219 12.675781 29.035156 12.652344 C 28.902344 12.640625 28.792969 12.613281 28.785156 12.59375 C 28.777344 12.574219 28.753906 12.5625 28.738281 12.578125 C 28.6875 12.605469 28.695312 12.53125 28.753906 12.414062 C 28.785156 12.355469 28.828125 12.203125 28.851562 12.074219 C 28.914062 11.734375 28.910156 11.734375 29.152344 11.847656 Z M 29.152344 11.847656 "/>
<path style=" stroke:none;fill-rule:nonzero;fill:rgb(0%,0%,0%);fill-opacity:1;" d="M 27.945312 11.308594 C 27.980469 11.363281 28.019531 11.398438 28.03125 11.390625 C 28.039062 11.378906 28.011719 11.328125 27.964844 11.285156 L 27.882812 11.203125 Z M 27.945312 11.308594 "/>
<path style=" stroke:none;fill-rule:nonzero;fill:rgb(0%,0%,0%);fill-opacity:1;" d="M 24.804688 11.949219 C 24.789062 11.964844 24.660156 11.988281 24.511719 12.007812 C 23.796875 12.09375 23.675781 12.109375 23.5 12.148438 C 23.277344 12.195312 22.894531 12.253906 22.660156 12.28125 C 22.558594 12.292969 22.480469 12.320312 22.480469 12.335938 C 22.480469 12.355469 22.414062 12.371094 22.335938 12.371094 C 22.253906 12.371094 22.179688 12.386719 22.167969 12.40625 C 22.15625 12.425781 22.066406 12.445312 21.96875 12.445312 C 21.875 12.445312 21.726562 12.46875 21.636719 12.5 C 21.546875 12.535156 21.464844 12.546875 21.445312 12.535156 C 21.429688 12.527344 21.40625 12.535156 21.398438 12.558594 C 21.394531 12.582031 21.304688 12.605469 21.203125 12.609375 C 20.9375 12.621094 20.628906 12.675781 20.628906 12.703125 C 20.628906 12.734375 20.53125 12.75 20.105469 12.800781 C 20.003906 12.8125 19.925781 12.835938 19.925781 12.859375 C 19.925781 12.878906 19.902344 12.890625 19.882812 12.878906 C 19.855469 12.871094 19.769531 12.886719 19.6875 12.910156 C 19.609375 12.941406 19.5 12.964844 19.441406 12.964844 C 19.386719 12.964844 19.324219 12.976562 19.316406 13 C 19.304688 13.019531 19.265625 13.035156 19.234375 13.035156 C 19.203125 13.035156 19.085938 13.125 18.976562 13.238281 C 18.789062 13.425781 18.777344 13.449219 18.785156 13.601562 C 18.796875 13.757812 18.796875 13.757812 18.667969 13.765625 C 18.597656 13.769531 18.53125 13.773438 18.519531 13.777344 C 18.507812 13.78125 18.355469 13.785156 18.179688 13.792969 C 18 13.796875 17.84375 13.8125 17.828125 13.824219 C 17.816406 13.839844 17.761719 13.851562 17.71875 13.851562 C 17.671875 13.851562 17.621094 13.867188 17.609375 13.890625 C 17.601562 13.90625 17.539062 13.925781 17.480469 13.925781 C 17.421875 13.925781 17.363281 13.945312 17.351562 13.964844 C 17.335938 13.988281 17.304688 13.996094 17.273438 13.984375 C 17.246094 13.972656 17.222656 13.980469 17.222656 14.003906 C 17.222656 14.027344 17.191406 14.023438 17.144531 13.996094 C 17.097656 13.96875 17.074219 13.96875 17.089844 13.992188 C 17.101562 14.015625 17.097656 14.039062 17.074219 14.054688 C 17.042969 14.074219 16.96875 13.957031 16.96875 13.890625 C 16.972656 13.839844 16.753906 13.628906 16.703125 13.628906 C 16.671875 13.628906 16.628906 13.613281 16.605469 13.59375 C 16.558594 13.542969 16.085938 13.535156 16.03125 13.582031 C 15.96875 13.628906 15.785156 13.667969 15.480469 13.6875 C 15.347656 13.695312 15.238281 13.722656 15.230469 13.742188 C 15.222656 13.761719 15.140625 13.777344 15.050781 13.777344 C 14.960938 13.777344 14.851562 13.792969 14.816406 13.816406 C 14.777344 13.832031 14.683594 13.855469 14.605469 13.863281 C 14.527344 13.871094 14.429688 13.894531 14.386719 13.914062 C 14.34375 13.941406 14.289062 13.945312 14.261719 13.929688 C 14.210938 13.894531 13.960938 13.933594 13.703125 14.015625 C 13.609375 14.039062 13.484375 14.066406 13.417969 14.066406 C 13.355469 14.066406 13.265625 14.085938 13.226562 14.105469 C 13.183594 14.128906 13.070312 14.148438 12.964844 14.148438 C 12.867188 14.148438 12.769531 14.164062 12.757812 14.183594 C 12.75 14.203125 12.679688 14.21875 12.613281 14.214844 C 12.546875 14.210938 12.46875 14.226562 12.441406 14.242188 C 12.414062 14.257812 12.320312 14.28125 12.242188 14.289062 C 12.160156 14.296875 12.082031 14.320312 12.070312 14.339844 C 12.054688 14.363281 12.023438 14.371094 11.996094 14.363281 C 11.964844 14.351562 11.871094 14.367188 11.777344 14.394531 C 11.683594 14.417969 11.5625 14.449219 11.5 14.457031 C 11.441406 14.464844 11.363281 14.476562 11.332031 14.492188 C 11.304688 14.503906 11.136719 14.535156 10.964844 14.554688 C 10.789062 14.582031 10.621094 14.609375 10.59375 14.621094 C 10.527344 14.644531 10.484375 14.652344 10.394531 14.660156 C 10.359375 14.664062 10.269531 14.726562 10.195312 14.796875 L 10.0625 14.925781 L 10.09375 15.175781 C 10.105469 15.316406 10.125 15.464844 10.128906 15.519531 C 10.136719 15.570312 10.179688 15.679688 10.222656 15.757812 C 10.269531 15.839844 10.308594 15.933594 10.3125 15.964844 C 10.316406 15.992188 10.363281 16.113281 10.417969 16.234375 C 10.472656 16.351562 10.519531 16.460938 10.519531 16.472656 C 10.519531 16.488281 10.546875 16.542969 10.582031 16.59375 C 10.617188 16.644531 10.648438 16.707031 10.65625 16.738281 C 10.660156 16.765625 10.6875 16.804688 10.71875 16.820312 C 10.75 16.839844 10.777344 16.886719 10.777344 16.921875 C 10.777344 16.957031 10.8125 17.023438 10.855469 17.066406 C 10.894531 17.113281 10.957031 17.207031 10.984375 17.277344 C 11.015625 17.347656 11.0625 17.40625 11.09375 17.40625 C 11.117188 17.40625 11.214844 17.476562 11.304688 17.566406 C 11.394531 17.65625 11.523438 17.757812 11.59375 17.804688 C 11.851562 17.964844 12.332031 18.1875 12.367188 18.171875 C 12.386719 18.15625 12.472656 18.171875 12.5625 18.199219 C 12.976562 18.335938 13.816406 18.402344 14.15625 18.324219 C 14.324219 18.289062 14.46875 18.261719 14.679688 18.234375 C 14.75 18.222656 14.816406 18.199219 14.816406 18.179688 C 14.816406 18.164062 14.847656 18.148438 14.890625 18.148438 C 14.953125 18.148438 15.214844 18.042969 15.371094 17.960938 C 15.398438 17.945312 15.5 17.890625 15.59375 17.84375 C 15.683594 17.796875 15.777344 17.742188 15.796875 17.71875 C 15.820312 17.699219 15.914062 17.621094 16.011719 17.550781 C 16.109375 17.480469 16.265625 17.355469 16.363281 17.265625 C 16.457031 17.179688 16.542969 17.109375 16.5625 17.109375 C 16.578125 17.109375 16.59375 17.09375 16.59375 17.070312 C 16.59375 17.042969 16.652344 16.949219 16.722656 16.847656 C 16.792969 16.75 16.859375 16.621094 16.875 16.566406 C 16.890625 16.511719 16.910156 16.445312 16.921875 16.425781 C 17.015625 16.285156 17.15625 15.574219 17.164062 15.222656 C 17.167969 14.941406 17.226562 14.851562 17.464844 14.777344 C 17.542969 14.75 17.628906 14.714844 17.652344 14.695312 C 17.703125 14.660156 17.785156 14.640625 18.09375 14.59375 C 18.339844 14.550781 18.925781 14.585938 18.925781 14.636719 C 18.925781 14.65625 18.949219 14.667969 18.972656 14.664062 C 19.074219 14.652344 19.105469 14.671875 19.105469 14.765625 C 19.105469 14.820312 19.121094 14.875 19.144531 14.882812 C 19.167969 14.890625 19.179688 14.910156 19.164062 14.929688 C 19.152344 14.949219 19.164062 14.964844 19.1875 14.964844 C 19.214844 14.964844 19.222656 14.972656 19.210938 14.988281 C 19.195312 15 19.210938 15.042969 19.25 15.082031 C 19.28125 15.117188 19.292969 15.148438 19.277344 15.148438 C 19.257812 15.148438 19.28125 15.183594 19.324219 15.230469 C 19.367188 15.277344 19.402344 15.328125 19.398438 15.34375 C 19.398438 15.386719 19.707031 15.816406 19.761719 15.84375 C 19.789062 15.859375 19.890625 15.945312 19.988281 16.035156 C 20.085938 16.128906 20.210938 16.226562 20.269531 16.253906 C 20.324219 16.285156 20.371094 16.320312 20.371094 16.339844 C 20.371094 16.355469 20.394531 16.371094 20.417969 16.371094 C 20.441406 16.371094 20.503906 16.402344 20.554688 16.445312 C 20.605469 16.484375 20.683594 16.519531 20.734375 16.519531 C 20.777344 16.519531 20.816406 16.535156 20.816406 16.550781 C 20.816406 16.589844 20.933594 16.636719 21.035156 16.648438 C 21.066406 16.652344 21.132812 16.675781 21.179688 16.699219 C 21.234375 16.730469 21.328125 16.742188 21.410156 16.730469 C 21.503906 16.71875 21.554688 16.726562 21.570312 16.757812 C 21.582031 16.792969 21.695312 16.808594 21.945312 16.8125 C 22.140625 16.816406 22.339844 16.832031 22.386719 16.851562 C 22.4375 16.871094 22.535156 16.871094 22.613281 16.847656 C 22.695312 16.832031 22.859375 16.816406 22.984375 16.816406 C 23.105469 16.816406 23.222656 16.800781 23.246094 16.785156 C 23.289062 16.746094 23.5625 16.667969 23.660156 16.667969 C 23.703125 16.667969 23.792969 16.636719 23.859375 16.601562 C 23.925781 16.566406 24.082031 16.496094 24.203125 16.445312 C 24.464844 16.339844 24.777344 16.15625 24.777344 16.105469 C 24.777344 16.089844 24.808594 16.074219 24.847656 16.074219 C 24.886719 16.074219 24.960938 16.019531 25.015625 15.949219 C 25.066406 15.878906 25.132812 15.796875 25.164062 15.769531 C 25.191406 15.742188 25.273438 15.621094 25.347656 15.507812 C 25.421875 15.394531 25.496094 15.289062 25.519531 15.277344 C 25.539062 15.261719 25.546875 15.238281 25.535156 15.21875 C 25.523438 15.195312 25.535156 15.152344 25.566406 15.117188 C 25.597656 15.085938 25.621094 15.03125 25.625 15 C 25.636719 14.84375 25.65625 14.773438 25.695312 14.734375 C 25.722656 14.707031 25.742188 14.65625 25.742188 14.613281 C 25.742188 14.527344 25.804688 14.164062 25.867188 13.90625 C 25.894531 13.78125 25.898438 13.644531 25.878906 13.480469 C 25.863281 13.347656 25.84375 13.167969 25.835938 13.074219 C 25.828125 12.980469 25.789062 12.808594 25.742188 12.683594 C 25.695312 12.5625 25.652344 12.421875 25.640625 12.371094 C 25.628906 12.320312 25.605469 12.257812 25.578125 12.242188 C 25.554688 12.21875 25.519531 12.171875 25.496094 12.128906 C 25.472656 12.089844 25.390625 12.035156 25.304688 12.019531 C 25.222656 11.996094 25.140625 11.96875 25.125 11.953125 C 25.09375 11.917969 24.835938 11.917969 24.804688 11.949219 Z M 23.375 13.15625 C 23.410156 13.207031 23.441406 13.222656 23.445312 13.191406 C 23.445312 13.167969 23.464844 13.15625 23.484375 13.167969 C 23.535156 13.199219 23.464844 13.796875 23.402344 13.835938 C 23.386719 13.847656 23.371094 13.902344 23.371094 13.964844 C 23.371094 14.023438 23.355469 14.078125 23.335938 14.089844 C 23.308594 14.109375 23.285156 14.203125 23.238281 14.535156 C 23.226562 14.617188 23.199219 14.699219 23.179688 14.71875 C 23.164062 14.742188 23.148438 14.804688 23.148438 14.859375 C 23.148438 14.914062 23.132812 14.964844 23.117188 14.964844 C 23.105469 14.964844 23.085938 15.019531 23.082031 15.082031 C 23.078125 15.148438 23.03125 15.292969 22.976562 15.398438 C 22.894531 15.566406 22.867188 15.59375 22.800781 15.570312 C 22.738281 15.546875 22.730469 15.554688 22.757812 15.601562 C 22.78125 15.625 22.765625 15.617188 22.734375 15.582031 C 22.660156 15.5 22.648438 15.421875 22.703125 15.390625 C 22.726562 15.375 22.734375 15.296875 22.722656 15.207031 C 22.714844 15.121094 22.722656 14.992188 22.746094 14.921875 C 22.765625 14.851562 22.789062 14.730469 22.796875 14.644531 C 22.800781 14.5625 22.820312 14.4375 22.835938 14.367188 C 22.851562 14.296875 22.863281 14.230469 22.859375 14.214844 C 22.84375 14.160156 22.964844 13.578125 23 13.535156 C 23.023438 13.511719 23.03125 13.464844 23.015625 13.433594 C 23.003906 13.402344 23.011719 13.367188 23.035156 13.351562 C 23.054688 13.339844 23.074219 13.300781 23.074219 13.261719 C 23.074219 13.199219 23.199219 13.082031 23.269531 13.078125 C 23.289062 13.074219 23.332031 13.109375 23.375 13.15625 Z M 22.058594 13.601562 C 22.125 13.621094 22.1875 13.675781 22.199219 13.714844 C 22.226562 13.820312 22.148438 14.421875 22.105469 14.4375 C 22.089844 14.445312 22.074219 14.503906 22.074219 14.574219 C 22.074219 14.640625 22.046875 14.714844 22.019531 14.742188 C 21.988281 14.765625 21.96875 14.796875 21.976562 14.8125 C 21.984375 14.820312 21.957031 14.882812 21.90625 14.941406 C 21.835938 15.03125 21.8125 15.039062 21.765625 15.003906 C 21.679688 14.9375 21.671875 14.792969 21.703125 14.390625 C 21.722656 14.183594 21.742188 13.953125 21.75 13.871094 C 21.75 13.789062 21.792969 13.683594 21.828125 13.636719 C 21.914062 13.539062 21.902344 13.542969 22.058594 13.601562 Z M 14.605469 14.640625 C 14.683594 14.730469 14.730469 14.890625 14.671875 14.890625 C 14.65625 14.890625 14.648438 14.929688 14.65625 14.976562 C 14.667969 15.027344 14.65625 15.078125 14.632812 15.089844 C 14.609375 15.105469 14.59375 15.183594 14.59375 15.273438 C 14.59375 15.359375 14.574219 15.449219 14.550781 15.46875 C 14.53125 15.492188 14.507812 15.578125 14.507812 15.65625 C 14.507812 15.734375 14.488281 15.808594 14.46875 15.820312 C 14.457031 15.828125 14.433594 15.894531 14.425781 15.964844 C 14.40625 16.179688 14.328125 16.480469 14.25 16.660156 L 14.175781 16.828125 L 14.105469 16.746094 C 14.050781 16.679688 14.035156 16.675781 14.035156 16.71875 C 14.035156 16.75 14.054688 16.777344 14.078125 16.777344 C 14.097656 16.777344 14.105469 16.796875 14.089844 16.820312 C 14.074219 16.84375 14.050781 16.84375 14.03125 16.820312 C 13.984375 16.777344 13.988281 16.179688 14.035156 15.980469 C 14.054688 15.898438 14.074219 15.808594 14.074219 15.777344 C 14.074219 15.730469 14.066406 15.730469 14.035156 15.777344 C 14 15.820312 14 15.820312 14.019531 15.757812 C 14.089844 15.570312 14.148438 15.304688 14.148438 15.179688 C 14.148438 15.105469 14.167969 15.03125 14.183594 15.019531 C 14.207031 15.007812 14.222656 14.933594 14.222656 14.855469 C 14.222656 14.699219 14.296875 14.605469 14.390625 14.644531 C 14.421875 14.65625 14.441406 14.652344 14.425781 14.632812 C 14.410156 14.605469 14.449219 14.570312 14.515625 14.558594 C 14.523438 14.554688 14.5625 14.597656 14.605469 14.640625 Z M 13.414062 15.15625 C 13.453125 15.210938 13.433594 15.449219 13.367188 15.722656 C 13.339844 15.820312 13.320312 15.964844 13.320312 16.042969 C 13.316406 16.117188 13.304688 16.191406 13.289062 16.207031 C 13.269531 16.222656 13.257812 16.269531 13.257812 16.316406 C 13.257812 16.429688 13.125 16.6875 13.050781 16.71875 C 12.980469 16.746094 12.988281 16.75 12.929688 16.640625 C 12.878906 16.539062 12.878906 16.027344 12.925781 15.640625 C 12.964844 15.367188 13.007812 15.226562 13.09375 15.121094 C 13.140625 15.0625 13.367188 15.085938 13.414062 15.15625 Z M 13.414062 15.15625 "/>
<path style=" stroke:none;fill-rule:nonzero;fill:rgb(0%,0%,0%);fill-opacity:1;" d="M 14.355469 14.8125 C 14.34375 14.828125 14.359375 14.851562 14.390625 14.867188 C 14.421875 14.878906 14.445312 14.867188 14.445312 14.832031 C 14.445312 14.773438 14.386719 14.757812 14.355469 14.8125 Z M 14.355469 14.8125 "/>
<path style=" stroke:none;fill-rule:nonzero;fill:rgb(0%,0%,0%);fill-opacity:1;" d="M 27.851562 13.519531 C 27.851562 13.535156 27.871094 13.554688 27.894531 13.554688 C 27.910156 13.554688 27.917969 13.535156 27.90625 13.519531 C 27.894531 13.496094 27.878906 13.480469 27.867188 13.480469 C 27.859375 13.480469 27.851562 13.496094 27.851562 13.519531 Z M 27.851562 13.519531 "/>
<path style=" stroke:none;fill-rule:nonzero;fill:rgb(0%,0%,0%);fill-opacity:1;" d="M 28.222656 13.515625 C 28.222656 13.535156 28.242188 13.5625 28.257812 13.574219 C 28.28125 13.585938 28.296875 13.570312 28.296875 13.539062 C 28.296875 13.507812 28.28125 13.480469 28.257812 13.480469 C 28.242188 13.480469 28.222656 13.496094 28.222656 13.515625 Z M 28.222656 13.515625 "/>
<path style=" stroke:none;fill-rule:nonzero;fill:rgb(0%,0%,0%);fill-opacity:1;" d="M 28.390625 13.511719 C 28.441406 13.566406 28.535156 13.582031 28.546875 13.535156 C 28.550781 13.515625 28.511719 13.496094 28.457031 13.488281 C 28.386719 13.480469 28.363281 13.488281 28.390625 13.511719 Z M 28.390625 13.511719 "/>
<path style=" stroke:none;fill-rule:nonzero;fill:rgb(0%,0%,0%);fill-opacity:1;" d="M 17.167969 13.742188 C 17.179688 13.757812 17.195312 13.777344 17.207031 13.777344 C 17.214844 13.777344 17.222656 13.757812 17.222656 13.742188 C 17.222656 13.71875 17.203125 13.703125 17.179688 13.703125 C 17.164062 13.703125 17.15625 13.71875 17.167969 13.742188 Z M 17.167969 13.742188 "/>
<path style=" stroke:none;fill-rule:nonzero;fill:rgb(0%,0%,0%);fill-opacity:1;" d="M 18.855469 15.011719 C 18.863281 15.015625 18.898438 15.042969 18.9375 15.070312 C 18.992188 15.113281 19 15.113281 18.976562 15.058594 C 18.964844 15.027344 18.929688 15 18.894531 15 C 18.867188 15 18.847656 15.003906 18.855469 15.011719 Z M 18.855469 15.011719 "/>
<path style=" stroke:none;fill-rule:nonzero;fill:rgb(0%,0%,0%);fill-opacity:1;" d="M 25.871094 15.035156 C 25.859375 15.054688 25.867188 15.074219 25.886719 15.074219 C 25.90625 15.074219 25.925781 15.054688 25.925781 15.035156 C 25.925781 15.015625 25.917969 15 25.910156 15 C 25.898438 15 25.882812 15.015625 25.871094 15.035156 Z M 25.871094 15.035156 "/>
<path style=" stroke:none;fill-rule:nonzero;fill:rgb(0%,0%,0%);fill-opacity:1;" d="M 0.480469 15.71875 C 0.480469 15.726562 0.507812 15.746094 0.539062 15.753906 C 0.570312 15.765625 0.585938 15.761719 0.574219 15.742188 C 0.550781 15.703125 0.480469 15.6875 0.480469 15.71875 Z M 0.480469 15.71875 "/>
<path style=" stroke:none;fill-rule:nonzero;fill:rgb(0%,0%,0%);fill-opacity:1;" d="M 31.703125 16.917969 C 31.53125 16.945312 31.363281 16.972656 31.332031 16.988281 C 31.304688 17 31.230469 17.015625 31.167969 17.023438 C 31.105469 17.027344 30.976562 17.0625 30.882812 17.105469 C 30.785156 17.148438 30.644531 17.191406 30.566406 17.207031 C 30.488281 17.222656 30.386719 17.25 30.332031 17.277344 C 30.28125 17.300781 30.144531 17.34375 30.027344 17.371094 C 29.90625 17.394531 29.804688 17.433594 29.792969 17.453125 C 29.78125 17.464844 29.734375 17.480469 29.683594 17.480469 C 29.636719 17.480469 29.585938 17.496094 29.574219 17.519531 C 29.5625 17.535156 29.515625 17.554688 29.472656 17.554688 C 29.390625 17.554688 29.175781 17.617188 29.066406 17.671875 C 29.03125 17.6875 28.960938 17.703125 28.90625 17.703125 C 28.855469 17.703125 28.816406 17.71875 28.816406 17.742188 C 28.816406 17.757812 28.78125 17.777344 28.742188 17.777344 C 28.699219 17.777344 28.636719 17.792969 28.601562 17.8125 C 28.566406 17.828125 28.460938 17.867188 28.363281 17.894531 C 28.261719 17.921875 28.183594 17.957031 28.183594 17.972656 C 28.183594 17.988281 28.171875 17.992188 28.148438 17.980469 C 28.128906 17.96875 28.0625 17.984375 28 18.019531 C 27.941406 18.046875 27.886719 18.074219 27.882812 18.070312 C 27.867188 18.066406 27.683594 18.136719 27.503906 18.222656 C 27.410156 18.261719 27.3125 18.296875 27.28125 18.296875 C 27.25 18.296875 27.21875 18.3125 27.207031 18.328125 C 27.195312 18.347656 27.015625 18.414062 26.808594 18.484375 C 26.597656 18.550781 26.410156 18.617188 26.390625 18.636719 C 26.371094 18.652344 26.3125 18.667969 26.257812 18.667969 C 26.203125 18.667969 26.148438 18.679688 26.132812 18.691406 C 26.121094 18.707031 26.074219 18.722656 26.03125 18.730469 C 25.984375 18.738281 25.9375 18.757812 25.925781 18.78125 C 25.910156 18.800781 25.886719 18.816406 25.867188 18.8125 C 25.808594 18.796875 25.554688 18.859375 25.554688 18.890625 C 25.554688 18.902344 25.503906 18.925781 25.445312 18.941406 C 25.382812 18.953125 25.289062 19.003906 25.238281 19.054688 C 25.183594 19.105469 25.128906 19.148438 25.109375 19.148438 C 25.039062 19.148438 24.859375 19.335938 24.839844 19.433594 C 24.824219 19.515625 24.855469 19.566406 25.015625 19.730469 L 25.203125 19.929688 L 25.394531 19.832031 C 25.503906 19.78125 25.605469 19.742188 25.625 19.742188 C 25.644531 19.742188 25.6875 19.714844 25.722656 19.679688 C 25.753906 19.648438 25.855469 19.609375 25.949219 19.601562 C 26.035156 19.59375 26.109375 19.566406 26.109375 19.546875 C 26.109375 19.527344 26.144531 19.519531 26.183594 19.53125 C 26.222656 19.539062 26.273438 19.527344 26.296875 19.5 C 26.320312 19.472656 26.382812 19.445312 26.4375 19.433594 C 26.679688 19.382812 26.890625 19.320312 26.890625 19.289062 C 26.890625 19.273438 26.929688 19.257812 26.980469 19.257812 C 27.035156 19.257812 27.105469 19.246094 27.140625 19.226562 C 27.269531 19.160156 27.425781 19.101562 27.457031 19.105469 C 27.46875 19.105469 27.480469 19.097656 27.480469 19.078125 C 27.480469 19.058594 27.550781 19.035156 27.636719 19.019531 C 27.726562 19.003906 27.8125 18.96875 27.832031 18.945312 C 27.851562 18.921875 27.941406 18.878906 28.027344 18.851562 C 28.109375 18.824219 28.175781 18.789062 28.164062 18.773438 C 28.152344 18.753906 28.164062 18.742188 28.179688 18.742188 C 28.203125 18.742188 28.222656 18.753906 28.222656 18.777344 C 28.222656 18.796875 28.25 18.804688 28.277344 18.792969 C 28.308594 18.777344 28.320312 18.753906 28.3125 18.734375 C 28.300781 18.714844 28.320312 18.699219 28.355469 18.707031 C 28.394531 18.710938 28.453125 18.707031 28.480469 18.695312 C 28.671875 18.628906 28.925781 18.554688 29.027344 18.535156 C 29.09375 18.523438 29.15625 18.496094 29.167969 18.476562 C 29.179688 18.460938 29.238281 18.445312 29.296875 18.445312 C 29.355469 18.445312 29.410156 18.429688 29.421875 18.410156 C 29.433594 18.394531 29.527344 18.371094 29.628906 18.355469 C 29.730469 18.339844 29.816406 18.316406 29.816406 18.292969 C 29.816406 18.269531 29.832031 18.265625 29.851562 18.277344 C 29.875 18.292969 29.910156 18.289062 29.9375 18.265625 C 29.964844 18.25 30.132812 18.1875 30.316406 18.132812 C 30.5 18.078125 30.675781 18.015625 30.707031 18 C 30.742188 17.980469 30.847656 17.957031 30.949219 17.941406 C 31.046875 17.925781 31.140625 17.898438 31.15625 17.878906 C 31.167969 17.855469 31.238281 17.839844 31.3125 17.84375 C 31.390625 17.847656 31.445312 17.832031 31.445312 17.808594 C 31.445312 17.785156 31.457031 17.777344 31.464844 17.789062 C 31.480469 17.800781 31.519531 17.796875 31.550781 17.777344 C 31.585938 17.761719 31.722656 17.746094 31.851562 17.738281 C 31.984375 17.734375 32.113281 17.710938 32.144531 17.6875 C 32.179688 17.664062 32.203125 17.667969 32.242188 17.714844 C 32.265625 17.75 32.328125 17.777344 32.386719 17.777344 C 32.445312 17.777344 32.480469 17.796875 32.480469 17.832031 C 32.480469 17.867188 32.449219 17.890625 32.394531 17.890625 C 32.351562 17.890625 32.273438 17.914062 32.230469 17.949219 C 32.183594 17.976562 32.132812 17.996094 32.113281 17.984375 C 32.097656 17.972656 32.0625 17.988281 32.035156 18.019531 C 32.011719 18.046875 31.960938 18.074219 31.925781 18.074219 C 31.867188 18.074219 31.640625 18.175781 31.59375 18.222656 C 31.554688 18.257812 31.425781 18.335938 31.367188 18.355469 C 31.273438 18.386719 31.226562 18.515625 31.214844 18.742188 C 31.203125 18.914062 31.21875 18.957031 31.296875 19.039062 C 31.535156 19.296875 31.667969 19.464844 31.667969 19.527344 C 31.667969 19.5625 31.683594 19.59375 31.707031 19.59375 C 31.738281 19.59375 31.746094 19.6875 31.722656 19.933594 C 31.703125 20.210938 31.675781 20.320312 31.585938 20.5 C 31.523438 20.621094 31.464844 20.730469 31.449219 20.742188 C 31.433594 20.75 31.410156 20.785156 31.398438 20.820312 C 31.386719 20.851562 31.316406 20.90625 31.234375 20.941406 C 31.15625 20.976562 31.027344 21.039062 30.941406 21.078125 C 30.859375 21.113281 30.742188 21.148438 30.675781 21.148438 C 30.609375 21.148438 30.515625 21.167969 30.457031 21.191406 C 30.320312 21.25 30.035156 21.257812 29.96875 21.210938 C 29.945312 21.191406 29.863281 21.171875 29.792969 21.164062 C 29.621094 21.148438 29.320312 21.035156 29.285156 20.972656 C 29.269531 20.949219 29.234375 20.925781 29.207031 20.925781 C 29.183594 20.925781 29.105469 20.867188 29.035156 20.796875 C 28.964844 20.726562 28.894531 20.667969 28.867188 20.667969 C 28.839844 20.667969 28.808594 20.632812 28.796875 20.59375 C 28.78125 20.550781 28.710938 20.484375 28.636719 20.449219 L 28.503906 20.382812 L 28.382812 20.5 C 28.304688 20.574219 28.253906 20.660156 28.25 20.734375 C 28.242188 20.859375 28.0625 21.015625 27.683594 21.222656 C 27.5625 21.289062 27.421875 21.371094 27.371094 21.40625 C 27.320312 21.441406 27.164062 21.527344 27.027344 21.597656 C 26.886719 21.664062 26.742188 21.75 26.699219 21.789062 C 26.660156 21.824219 26.574219 21.878906 26.503906 21.90625 C 26.4375 21.9375 26.363281 21.984375 26.335938 22.015625 C 26.3125 22.042969 26.242188 22.082031 26.179688 22.09375 C 26.105469 22.109375 25.964844 22.21875 25.796875 22.390625 C 25.550781 22.636719 25.527344 22.675781 25.53125 22.804688 C 25.539062 23.007812 25.667969 23.0625 26.003906 23.003906 C 26.140625 22.976562 26.261719 22.9375 26.269531 22.910156 C 26.285156 22.871094 26.554688 22.765625 26.613281 22.777344 C 26.628906 22.78125 26.652344 22.769531 26.664062 22.75 C 26.675781 22.738281 26.757812 22.671875 26.851562 22.609375 C 27 22.515625 27.105469 22.453125 27.460938 22.265625 C 27.550781 22.21875 27.980469 21.945312 28.09375 21.863281 C 28.113281 21.84375 28.15625 21.828125 28.183594 21.820312 C 28.214844 21.816406 28.257812 21.777344 28.289062 21.738281 C 28.316406 21.699219 28.363281 21.667969 28.394531 21.667969 C 28.421875 21.667969 28.445312 21.652344 28.445312 21.632812 C 28.445312 21.613281 28.511719 21.589844 28.59375 21.574219 C 28.699219 21.554688 28.753906 21.5625 28.796875 21.605469 C 28.824219 21.636719 28.898438 21.671875 28.960938 21.683594 C 29.019531 21.695312 29.105469 21.75 29.148438 21.800781 C 29.195312 21.847656 29.273438 21.890625 29.320312 21.890625 C 29.371094 21.890625 29.417969 21.914062 29.433594 21.949219 C 29.445312 21.976562 29.476562 21.996094 29.503906 21.984375 C 29.535156 21.972656 29.613281 21.992188 29.6875 22.027344 C 29.789062 22.074219 29.839844 22.082031 29.917969 22.050781 C 29.972656 22.03125 30.054688 22.027344 30.09375 22.035156 C 30.179688 22.070312 30.691406 22.046875 30.753906 22.011719 C 30.777344 21.996094 30.855469 21.980469 30.925781 21.976562 C 31.070312 21.96875 31.15625 21.9375 31.425781 21.78125 C 31.53125 21.722656 31.628906 21.671875 31.65625 21.671875 C 31.761719 21.664062 32.257812 21.074219 32.257812 20.953125 C 32.257812 20.914062 32.273438 20.894531 32.296875 20.90625 C 32.335938 20.933594 32.421875 20.644531 32.390625 20.59375 C 32.375 20.570312 32.386719 20.558594 32.410156 20.5625 C 32.464844 20.574219 32.511719 20.332031 32.535156 19.894531 C 32.542969 19.679688 32.535156 19.621094 32.496094 19.605469 C 32.464844 19.59375 32.445312 19.546875 32.453125 19.503906 C 32.460938 19.429688 32.398438 19.257812 32.277344 19.027344 C 32.25 18.964844 32.222656 18.898438 32.222656 18.875 C 32.222656 18.828125 32.40625 18.738281 32.59375 18.683594 C 32.765625 18.636719 33.035156 18.503906 33.035156 18.46875 C 33.035156 18.449219 33.046875 18.441406 33.058594 18.453125 C 33.070312 18.464844 33.109375 18.445312 33.148438 18.40625 C 33.179688 18.375 33.226562 18.335938 33.246094 18.328125 C 33.261719 18.320312 33.332031 18.238281 33.398438 18.136719 C 33.515625 17.972656 33.523438 17.949219 33.5 17.75 C 33.488281 17.632812 33.457031 17.496094 33.433594 17.445312 C 33.355469 17.28125 33.144531 17.078125 33.003906 17.035156 C 32.929688 17.011719 32.84375 16.984375 32.816406 16.972656 C 32.785156 16.960938 32.746094 16.957031 32.726562 16.960938 C 32.710938 16.964844 32.679688 16.949219 32.652344 16.929688 C 32.582031 16.871094 32.050781 16.863281 31.703125 16.917969 Z M 28.425781 18.148438 C 28.324219 18.191406 28.265625 18.191406 28.332031 18.148438 C 28.363281 18.128906 28.414062 18.113281 28.445312 18.113281 C 28.480469 18.113281 28.472656 18.125 28.425781 18.148438 Z M 31.5625 18.871094 C 31.523438 18.949219 31.46875 18.886719 31.503906 18.796875 C 31.519531 18.757812 31.539062 18.75 31.5625 18.769531 C 31.589844 18.796875 31.589844 18.828125 31.5625 18.871094 Z M 30.730469 21.875 C 30.71875 21.886719 30.683594 21.890625 30.660156 21.878906 C 30.628906 21.867188 30.640625 21.855469 30.679688 21.855469 C 30.722656 21.851562 30.746094 21.863281 30.730469 21.875 Z M 26.59375 22.484375 C 26.566406 22.527344 26.539062 22.550781 26.53125 22.539062 C 26.519531 22.53125 26.53125 22.496094 26.554688 22.464844 C 26.621094 22.386719 26.640625 22.394531 26.59375 22.484375 Z M 26.59375 22.484375 "/>
<path style=" stroke:none;fill-rule:nonzero;fill:rgb(0%,0%,0%);fill-opacity:1;" d="M 10.480469 17.257812 C 10.480469 17.277344 10.5 17.296875 10.523438 17.296875 C 10.539062 17.296875 10.546875 17.277344 10.535156 17.257812 C 10.527344 17.238281 10.507812 17.222656 10.496094 17.222656 C 10.488281 17.222656 10.480469 17.238281 10.480469 17.257812 Z M 10.480469 17.257812 "/>
<path style=" stroke:none;fill-rule:nonzero;fill:rgb(0%,0%,0%);fill-opacity:1;" d="M 20.371094 17.796875 C 20.320312 17.824219 20.253906 17.847656 20.230469 17.851562 C 20.179688 17.851562 20.164062 17.863281 19.964844 18.035156 C 19.894531 18.097656 19.824219 18.136719 19.808594 18.125 C 19.792969 18.113281 19.777344 18.121094 19.777344 18.140625 C 19.777344 18.160156 19.730469 18.195312 19.671875 18.222656 C 19.609375 18.246094 19.535156 18.296875 19.496094 18.335938 C 19.464844 18.375 19.398438 18.40625 19.363281 18.40625 C 19.324219 18.40625 19.285156 18.433594 19.273438 18.464844 C 19.257812 18.492188 19.238281 18.507812 19.21875 18.496094 C 19.195312 18.484375 19.164062 18.492188 19.136719 18.515625 C 19.074219 18.5625 18.671875 18.625 18.546875 18.605469 C 18.402344 18.578125 18.207031 18.683594 18.136719 18.835938 C 18.058594 18.996094 18.058594 19.0625 18.132812 19.105469 C 18.167969 19.121094 18.1875 19.148438 18.1875 19.160156 C 18.179688 19.238281 18.1875 19.257812 18.242188 19.257812 C 18.269531 19.257812 18.3125 19.289062 18.328125 19.328125 C 18.367188 19.394531 18.441406 19.40625 18.824219 19.414062 C 18.964844 19.414062 19.160156 19.382812 19.273438 19.335938 C 19.332031 19.3125 19.402344 19.300781 19.433594 19.3125 C 19.460938 19.320312 19.476562 19.3125 19.46875 19.285156 C 19.464844 19.257812 19.484375 19.246094 19.507812 19.25 C 19.5625 19.257812 19.894531 19.0625 20.03125 18.9375 C 20.082031 18.894531 20.136719 18.851562 20.15625 18.851562 C 20.199219 18.851562 20.40625 18.636719 20.40625 18.59375 C 20.40625 18.578125 20.433594 18.542969 20.464844 18.519531 C 20.550781 18.445312 20.695312 18.113281 20.679688 18.035156 C 20.667969 18 20.613281 17.917969 20.5625 17.855469 C 20.46875 17.75 20.460938 17.746094 20.371094 17.796875 Z M 20.371094 17.796875 "/>
<path style=" stroke:none;fill-rule:nonzero;fill:rgb(0%,0%,0%);fill-opacity:1;" d="M 11.488281 18.074219 C 11.488281 18.125 11.496094 18.144531 11.507812 18.117188 C 11.515625 18.097656 11.515625 18.050781 11.507812 18.027344 C 11.496094 18.003906 11.488281 18.023438 11.488281 18.074219 Z M 11.488281 18.074219 "/>
<path style=" stroke:none;fill-rule:nonzero;fill:rgb(0%,0%,0%);fill-opacity:1;" d="M 11.601562 18.121094 C 11.636719 18.152344 11.660156 18.179688 11.648438 18.1875 C 11.640625 18.199219 11.664062 18.207031 11.699219 18.207031 C 11.742188 18.207031 11.761719 18.183594 11.75 18.160156 C 11.742188 18.132812 11.71875 18.109375 11.703125 18.109375 C 11.683594 18.109375 11.640625 18.101562 11.605469 18.089844 C 11.539062 18.070312 11.539062 18.070312 11.601562 18.121094 Z M 11.601562 18.121094 "/>
<path style=" stroke:none;fill-rule:nonzero;fill:rgb(0%,0%,0%);fill-opacity:1;" d="M 11.925781 18.257812 C 11.972656 18.300781 12.019531 18.332031 12.03125 18.332031 C 12.039062 18.332031 12.019531 18.300781 11.980469 18.257812 C 11.945312 18.21875 11.894531 18.183594 11.878906 18.183594 C 11.855469 18.183594 11.878906 18.21875 11.925781 18.257812 Z M 11.925781 18.257812 "/>
<path style=" stroke:none;fill-rule:nonzero;fill:rgb(0%,0%,0%);fill-opacity:1;" d="M 12.148438 18.367188 C 12.148438 18.394531 12.300781 18.453125 12.320312 18.429688 C 12.328125 18.425781 12.292969 18.398438 12.242188 18.378906 C 12.1875 18.355469 12.148438 18.347656 12.148438 18.367188 Z M 12.148438 18.367188 "/>
<path style=" stroke:none;fill-rule:nonzero;fill:rgb(0%,0%,0%);fill-opacity:1;" d="M 27.390625 19.332031 C 27.398438 19.351562 27.417969 19.371094 27.429688 19.371094 C 27.4375 19.371094 27.445312 19.351562 27.445312 19.332031 C 27.445312 19.3125 27.425781 19.296875 27.402344 19.296875 C 27.386719 19.296875 27.378906 19.3125 27.390625 19.332031 Z M 27.390625 19.332031 "/>
<path style=" stroke:none;fill-rule:nonzero;fill:rgb(0%,0%,0%);fill-opacity:1;" d="M 26.953125 19.46875 C 26.902344 19.519531 26.925781 19.546875 27 19.53125 C 27.039062 19.519531 27.0625 19.496094 27.050781 19.476562 C 27.03125 19.4375 26.984375 19.433594 26.953125 19.46875 Z M 26.953125 19.46875 "/>
<path style=" stroke:none;fill-rule:nonzero;fill:rgb(0%,0%,0%);fill-opacity:1;" d="M 24.351562 19.519531 C 24.363281 19.535156 24.382812 19.554688 24.394531 19.554688 C 24.398438 19.554688 24.40625 19.535156 24.40625 19.519531 C 24.40625 19.496094 24.390625 19.480469 24.367188 19.480469 C 24.347656 19.480469 24.339844 19.496094 24.351562 19.519531 Z M 24.351562 19.519531 "/>
<path style=" stroke:none;fill-rule:nonzero;fill:rgb(0%,0%,0%);fill-opacity:1;" d="M 31.332031 19.515625 C 31.332031 19.535156 31.351562 19.5625 31.371094 19.574219 C 31.394531 19.585938 31.40625 19.582031 31.40625 19.558594 C 31.40625 19.539062 31.394531 19.511719 31.371094 19.5 C 31.351562 19.488281 31.332031 19.492188 31.332031 19.515625 Z M 31.332031 19.515625 "/>
<path style=" stroke:none;fill-rule:nonzero;fill:rgb(0%,0%,0%);fill-opacity:1;" d="M 31.566406 20.054688 C 31.566406 20.085938 31.582031 20.101562 31.601562 20.089844 C 31.617188 20.078125 31.621094 20.050781 31.609375 20.035156 C 31.578125 19.984375 31.566406 19.992188 31.566406 20.054688 Z M 31.566406 20.054688 "/>
<path style=" stroke:none;fill-rule:nonzero;fill:rgb(0%,0%,0%);fill-opacity:1;" d="M 17.074219 20.949219 C 16.898438 20.976562 16.652344 21.015625 16.519531 21.035156 C 16.128906 21.097656 16.035156 21.117188 16.015625 21.152344 C 16.003906 21.171875 15.949219 21.183594 15.890625 21.183594 C 15.828125 21.183594 15.769531 21.203125 15.753906 21.226562 C 15.746094 21.25 15.699219 21.253906 15.660156 21.25 C 15.574219 21.226562 14.992188 21.355469 14.84375 21.429688 C 14.792969 21.460938 14.722656 21.46875 14.691406 21.460938 C 14.660156 21.449219 14.59375 21.464844 14.535156 21.503906 C 14.484375 21.535156 14.433594 21.554688 14.417969 21.539062 C 14.40625 21.53125 14.375 21.535156 14.347656 21.558594 C 14.320312 21.582031 14.273438 21.59375 14.246094 21.582031 C 14.214844 21.570312 14.171875 21.585938 14.148438 21.613281 C 14.121094 21.644531 14.074219 21.667969 14.035156 21.667969 C 14 21.667969 13.921875 21.691406 13.867188 21.722656 C 13.808594 21.75 13.695312 21.789062 13.621094 21.800781 C 13.542969 21.816406 13.492188 21.835938 13.503906 21.855469 C 13.515625 21.875 13.496094 21.890625 13.464844 21.890625 C 13.429688 21.890625 13.296875 21.9375 13.167969 22 C 13.035156 22.058594 12.910156 22.109375 12.890625 22.109375 C 12.84375 22.109375 12.707031 22.183594 12.640625 22.25 C 12.613281 22.269531 12.554688 22.304688 12.507812 22.316406 C 12.375 22.355469 12.023438 22.53125 11.992188 22.570312 C 11.964844 22.609375 11.796875 22.703125 11.585938 22.800781 C 11.507812 22.832031 11.457031 22.878906 11.464844 22.894531 C 11.476562 22.910156 11.460938 22.925781 11.429688 22.925781 C 11.394531 22.925781 11.371094 22.941406 11.371094 22.964844 C 11.371094 22.980469 11.316406 23.023438 11.25 23.050781 C 11.109375 23.109375 10.5625 23.636719 10.484375 23.785156 C 10.457031 23.84375 10.417969 23.890625 10.402344 23.890625 C 10.363281 23.890625 10.222656 24.144531 10.222656 24.21875 C 10.222656 24.253906 10.1875 24.328125 10.148438 24.382812 C 10.105469 24.433594 10.074219 24.507812 10.074219 24.546875 C 10.074219 24.59375 10.058594 24.632812 10.039062 24.644531 C 9.941406 24.707031 9.925781 25.625 10.023438 25.78125 C 10.035156 25.804688 10.054688 25.90625 10.070312 26.015625 C 10.085938 26.121094 10.113281 26.199219 10.136719 26.195312 C 10.160156 26.191406 10.171875 26.21875 10.160156 26.253906 C 10.148438 26.296875 10.175781 26.375 10.210938 26.433594 C 10.464844 26.804688 10.519531 26.894531 10.519531 26.925781 C 10.519531 26.949219 10.535156 26.964844 10.554688 26.964844 C 10.574219 26.964844 10.628906 27.019531 10.675781 27.089844 C 10.71875 27.15625 10.816406 27.25 10.886719 27.300781 C 10.960938 27.347656 11.074219 27.445312 11.140625 27.511719 C 11.207031 27.578125 11.277344 27.621094 11.300781 27.609375 C 11.320312 27.597656 11.332031 27.601562 11.332031 27.617188 C 11.332031 27.65625 11.515625 27.742188 11.597656 27.742188 C 11.632812 27.742188 11.675781 27.757812 11.683594 27.78125 C 11.699219 27.804688 11.792969 27.8125 11.917969 27.800781 C 12.09375 27.785156 12.144531 27.761719 12.210938 27.679688 C 12.308594 27.558594 12.3125 27.527344 12.25 27.324219 C 12.222656 27.226562 12.183594 27.179688 12.121094 27.164062 C 12.078125 27.148438 12.035156 27.125 12.035156 27.105469 C 12.035156 27.089844 12.015625 27.074219 11.984375 27.074219 C 11.84375 27.074219 11.253906 26.570312 11.199219 26.398438 C 11.1875 26.363281 11.164062 26.332031 11.144531 26.332031 C 11.125 26.332031 11.109375 26.300781 11.109375 26.261719 C 11.109375 26.222656 11.097656 26.179688 11.074219 26.167969 C 11.054688 26.15625 11.035156 26.109375 11.035156 26.070312 C 11.035156 26.035156 11.023438 26 11.007812 26 C 10.992188 26 10.972656 25.949219 10.96875 25.882812 C 10.964844 25.816406 10.945312 25.75 10.921875 25.738281 C 10.902344 25.726562 10.886719 25.652344 10.890625 25.570312 C 10.890625 25.492188 10.894531 25.285156 10.890625 25.113281 C 10.890625 24.9375 10.90625 24.78125 10.929688 24.753906 C 10.953125 24.726562 10.960938 24.703125 10.945312 24.703125 C 10.929688 24.703125 10.957031 24.648438 11.007812 24.582031 C 11.054688 24.519531 11.117188 24.417969 11.144531 24.363281 C 11.175781 24.308594 11.234375 24.222656 11.273438 24.179688 C 11.320312 24.132812 11.351562 24.082031 11.351562 24.066406 C 11.351562 24.023438 11.792969 23.621094 11.945312 23.527344 C 12.019531 23.480469 12.097656 23.453125 12.113281 23.464844 C 12.132812 23.476562 12.148438 23.46875 12.148438 23.453125 C 12.148438 23.429688 12.308594 23.335938 12.503906 23.246094 C 12.699219 23.148438 12.886719 23.046875 12.914062 23.019531 C 12.945312 22.988281 12.992188 22.964844 13.023438 22.964844 C 13.050781 22.964844 13.164062 22.910156 13.269531 22.851562 C 13.382812 22.789062 13.503906 22.742188 13.546875 22.742188 C 13.589844 22.742188 13.636719 22.722656 13.648438 22.703125 C 13.660156 22.679688 13.699219 22.667969 13.738281 22.667969 C 13.773438 22.667969 13.824219 22.640625 13.851562 22.609375 C 13.878906 22.582031 13.9375 22.554688 13.980469 22.554688 C 14.027344 22.554688 14.105469 22.527344 14.152344 22.488281 C 14.25 22.414062 14.40625 22.359375 14.550781 22.351562 C 14.605469 22.351562 14.648438 22.328125 14.65625 22.308594 C 14.664062 22.285156 14.703125 22.273438 14.742188 22.285156 C 14.78125 22.296875 14.859375 22.277344 14.910156 22.242188 C 14.964844 22.207031 15.027344 22.1875 15.054688 22.195312 C 15.082031 22.207031 15.136719 22.191406 15.179688 22.160156 C 15.226562 22.128906 15.285156 22.113281 15.3125 22.121094 C 15.339844 22.132812 15.402344 22.121094 15.457031 22.09375 C 15.546875 22.042969 15.691406 22.015625 16 21.972656 C 16.09375 21.964844 16.183594 21.941406 16.207031 21.921875 C 16.230469 21.902344 16.289062 21.894531 16.335938 21.894531 C 16.414062 21.898438 16.617188 21.851562 16.777344 21.785156 C 16.839844 21.757812 17.078125 21.746094 17.480469 21.746094 C 17.941406 21.742188 18.105469 21.765625 18.296875 21.886719 C 18.324219 21.902344 18.382812 21.929688 18.417969 21.941406 C 18.453125 21.953125 18.496094 22 18.515625 22.046875 C 18.535156 22.097656 18.59375 22.199219 18.644531 22.277344 C 18.699219 22.355469 18.738281 22.441406 18.726562 22.464844 C 18.714844 22.496094 18.730469 22.507812 18.761719 22.492188 C 18.796875 22.480469 18.816406 22.5 18.820312 22.539062 C 18.832031 22.796875 18.855469 23.015625 18.871094 23.03125 C 18.878906 23.039062 18.839844 23.082031 18.785156 23.125 C 18.691406 23.199219 18.542969 23.25 18.203125 23.335938 C 18.121094 23.355469 18.039062 23.378906 18.019531 23.382812 C 18 23.386719 17.957031 23.40625 17.925781 23.425781 C 17.894531 23.445312 17.84375 23.457031 17.816406 23.453125 C 17.78125 23.449219 17.722656 23.46875 17.683594 23.507812 C 17.644531 23.542969 17.550781 23.605469 17.480469 23.636719 C 17.410156 23.675781 17.285156 23.746094 17.203125 23.796875 C 17.121094 23.84375 16.992188 23.921875 16.917969 23.964844 C 16.839844 24.003906 16.777344 24.054688 16.777344 24.074219 C 16.777344 24.097656 16.75 24.109375 16.722656 24.109375 C 16.691406 24.109375 16.636719 24.140625 16.601562 24.175781 C 16.5625 24.210938 16.445312 24.289062 16.335938 24.347656 C 16.226562 24.40625 16.085938 24.503906 16.023438 24.566406 C 15.910156 24.671875 15.535156 24.933594 15.273438 25.09375 C 15.203125 25.132812 15.121094 25.207031 15.085938 25.257812 C 15.046875 25.3125 14.9375 25.425781 14.835938 25.519531 C 14.738281 25.609375 14.625 25.757812 14.585938 25.847656 L 14.519531 26.007812 L 14.609375 26.097656 C 14.664062 26.144531 14.738281 26.183594 14.773438 26.183594 C 14.871094 26.183594 15.183594 26.070312 15.183594 26.035156 C 15.183594 26.023438 15.277344 25.976562 15.390625 25.945312 C 15.5 25.90625 15.59375 25.867188 15.59375 25.855469 C 15.59375 25.839844 15.683594 25.773438 15.796875 25.707031 C 15.90625 25.640625 16 25.574219 16 25.558594 C 16 25.546875 16.054688 25.511719 16.117188 25.484375 C 16.183594 25.457031 16.277344 25.394531 16.320312 25.347656 C 16.367188 25.304688 16.441406 25.253906 16.480469 25.242188 C 16.523438 25.230469 16.554688 25.199219 16.554688 25.179688 C 16.554688 25.164062 16.578125 25.148438 16.605469 25.148438 C 16.628906 25.148438 16.683594 25.121094 16.722656 25.09375 C 17.039062 24.855469 17.15625 24.777344 17.191406 24.777344 C 17.21875 24.777344 17.269531 24.746094 17.316406 24.703125 C 17.398438 24.613281 17.832031 24.332031 17.878906 24.332031 C 17.894531 24.332031 17.9375 24.304688 17.964844 24.265625 C 18.09375 24.128906 18.273438 24.0625 18.554688 24.046875 C 18.886719 24.03125 19.238281 23.917969 19.386719 23.78125 C 19.535156 23.640625 19.707031 23.328125 19.664062 23.273438 C 19.621094 23.226562 19.660156 23.101562 19.703125 23.128906 C 19.722656 23.140625 19.730469 23.105469 19.726562 23.058594 C 19.71875 23.007812 19.726562 22.949219 19.746094 22.921875 C 19.757812 22.894531 19.753906 22.851562 19.734375 22.820312 C 19.707031 22.796875 19.691406 22.707031 19.699219 22.625 C 19.703125 22.53125 19.675781 22.417969 19.617188 22.304688 C 19.570312 22.207031 19.507812 22.078125 19.476562 22.019531 C 19.449219 21.957031 19.414062 21.898438 19.402344 21.890625 C 19.394531 21.878906 19.355469 21.820312 19.320312 21.757812 C 19.292969 21.695312 19.175781 21.554688 19.0625 21.441406 C 18.765625 21.136719 18.355469 20.960938 17.925781 20.949219 C 17.816406 20.945312 17.648438 20.929688 17.554688 20.917969 C 17.464844 20.90625 17.25 20.917969 17.074219 20.949219 Z M 17.074219 20.949219 "/>
<path style=" stroke:none;fill-rule:nonzero;fill:rgb(0%,0%,0%);fill-opacity:1;" d="M 27.539062 21.058594 C 27.523438 21.109375 27.527344 21.113281 27.574219 21.074219 C 27.636719 21.023438 27.644531 21 27.597656 21 C 27.578125 21 27.550781 21.027344 27.539062 21.058594 Z M 27.539062 21.058594 "/>
<path style=" stroke:none;fill-rule:nonzero;fill:rgb(0%,0%,0%);fill-opacity:1;" d="M 19.628906 21.832031 C 19.628906 21.863281 19.644531 21.890625 19.667969 21.890625 C 19.683594 21.890625 19.691406 21.863281 19.679688 21.832031 C 19.667969 21.804688 19.652344 21.777344 19.644531 21.777344 C 19.636719 21.777344 19.628906 21.804688 19.628906 21.832031 Z M 19.628906 21.832031 "/>
<path style=" stroke:none;fill-rule:nonzero;fill:rgb(0%,0%,0%);fill-opacity:1;" d="M 27.804688 22.320312 C 27.789062 22.332031 27.777344 22.363281 27.777344 22.386719 C 27.777344 22.40625 27.796875 22.402344 27.820312 22.378906 C 27.84375 22.355469 27.855469 22.324219 27.847656 22.316406 C 27.835938 22.304688 27.816406 22.308594 27.804688 22.320312 Z M 27.804688 22.320312 "/>
<path style=" stroke:none;fill-rule:nonzero;fill:rgb(0%,0%,0%);fill-opacity:1;" d="M 9.765625 25.894531 C 9.746094 25.980469 9.769531 26.074219 9.820312 26.074219 C 9.835938 26.074219 9.839844 26.019531 9.824219 25.953125 C 9.796875 25.800781 9.792969 25.792969 9.765625 25.894531 Z M 9.765625 25.894531 "/>
<path style=" stroke:none;fill-rule:nonzero;fill:rgb(0%,0%,0%);fill-opacity:1;" d="M 28.074219 27.777344 C 28.074219 27.796875 28.09375 27.816406 28.113281 27.816406 C 28.132812 27.816406 28.140625 27.796875 28.128906 27.777344 C 28.117188 27.753906 28.101562 27.742188 28.089844 27.742188 C 28.082031 27.742188 28.074219 27.753906 28.074219 27.777344 Z M 28.074219 27.777344 "/>
<path style=" stroke:none;fill-rule:nonzero;fill:rgb(0%,0%,0%);fill-opacity:1;" d="M 15.199219 33.703125 C 14.902344 33.75 14.648438 34.003906 14.59375 34.304688 C 14.578125 34.382812 14.578125 34.445312 14.589844 34.445312 C 14.605469 34.445312 14.644531 34.507812 14.683594 34.582031 C 14.722656 34.660156 14.789062 34.757812 14.828125 34.804688 C 14.9375 34.929688 15.320312 35.113281 15.480469 35.121094 C 15.5625 35.125 15.636719 35.148438 15.644531 35.175781 C 15.65625 35.199219 15.695312 35.222656 15.738281 35.222656 C 15.828125 35.222656 15.863281 35.316406 15.789062 35.375 C 15.71875 35.433594 15.085938 35.433594 15.027344 35.375 C 14.960938 35.308594 14.800781 35.324219 14.710938 35.410156 L 14.628906 35.484375 L 14.703125 35.59375 C 14.746094 35.648438 14.777344 35.710938 14.777344 35.730469 C 14.777344 35.789062 15.011719 35.941406 15.089844 35.933594 C 15.128906 35.933594 15.175781 35.945312 15.183594 35.964844 C 15.210938 36.003906 15.527344 36.015625 15.742188 35.976562 C 15.933594 35.949219 16.261719 35.75 16.351562 35.613281 C 16.386719 35.566406 16.417969 35.445312 16.429688 35.34375 C 16.441406 35.191406 16.429688 35.136719 16.34375 35.007812 C 16.289062 34.921875 16.230469 34.851562 16.214844 34.851562 C 16.195312 34.851562 16.113281 34.808594 16.035156 34.753906 C 15.949219 34.703125 15.859375 34.671875 15.832031 34.679688 C 15.808594 34.6875 15.753906 34.675781 15.714844 34.648438 C 15.679688 34.617188 15.617188 34.59375 15.585938 34.59375 C 15.546875 34.59375 15.519531 34.578125 15.519531 34.558594 C 15.519531 34.539062 15.480469 34.527344 15.4375 34.523438 C 15.28125 34.519531 15.226562 34.507812 15.246094 34.476562 C 15.25 34.464844 15.242188 34.4375 15.21875 34.421875 C 15.183594 34.402344 15.195312 34.382812 15.246094 34.339844 C 15.304688 34.292969 15.308594 34.289062 15.25 34.308594 C 15.214844 34.320312 15.183594 34.320312 15.183594 34.300781 C 15.183594 34.242188 15.277344 34.191406 15.425781 34.179688 C 15.542969 34.164062 15.609375 34.179688 15.75 34.269531 C 15.886719 34.351562 15.941406 34.371094 15.964844 34.335938 C 15.976562 34.3125 16 34.292969 16.015625 34.292969 C 16.144531 34.3125 16.183594 34.289062 16.183594 34.207031 C 16.183594 33.972656 16.035156 33.820312 15.722656 33.738281 C 15.535156 33.683594 15.394531 33.679688 15.199219 33.703125 Z M 15.199219 33.703125 "/>
<path style=" stroke:none;fill-rule:nonzero;fill:rgb(0%,0%,0%);fill-opacity:1;" d="M 21.019531 33.828125 C 20.960938 33.859375 20.863281 33.917969 20.8125 33.964844 C 20.667969 34.097656 20.476562 34.464844 20.464844 34.640625 C 20.457031 34.726562 20.4375 34.898438 20.425781 35.027344 C 20.40625 35.183594 20.410156 35.257812 20.441406 35.257812 C 20.464844 35.257812 20.480469 35.292969 20.480469 35.332031 C 20.480469 35.546875 20.875 35.964844 21.019531 35.910156 C 21.046875 35.898438 21.082031 35.90625 21.09375 35.925781 C 21.128906 35.984375 21.238281 35.96875 21.300781 35.894531 C 21.332031 35.863281 21.402344 35.792969 21.464844 35.746094 C 21.550781 35.671875 21.574219 35.664062 21.664062 35.707031 C 21.714844 35.734375 21.769531 35.75 21.789062 35.75 C 21.804688 35.746094 21.816406 35.753906 21.816406 35.777344 C 21.816406 35.796875 21.863281 35.816406 21.921875 35.816406 C 22.058594 35.816406 22.246094 35.636719 22.265625 35.488281 C 22.285156 35.371094 22.25 35.320312 22.09375 35.269531 C 21.988281 35.238281 21.875 35.035156 21.949219 35.011719 C 21.964844 35.003906 21.972656 34.917969 21.96875 34.816406 C 21.964844 34.707031 21.980469 34.554688 22.019531 34.445312 C 22.066406 34.296875 22.070312 34.246094 22.035156 34.203125 C 22 34.160156 22 34.148438 22.039062 34.148438 C 22.109375 34.148438 21.886719 33.964844 21.816406 33.964844 C 21.785156 33.964844 21.710938 33.921875 21.652344 33.871094 C 21.5625 33.796875 21.507812 33.777344 21.335938 33.777344 C 21.222656 33.78125 21.082031 33.804688 21.019531 33.828125 Z M 21.414062 34.605469 C 21.394531 34.652344 21.34375 34.761719 21.300781 34.863281 C 21.257812 34.960938 21.222656 35.070312 21.222656 35.105469 C 21.222656 35.195312 21.160156 35.21875 21.046875 35.171875 C 20.980469 35.136719 20.964844 35.101562 20.964844 34.996094 C 20.964844 34.917969 20.988281 34.839844 21.019531 34.816406 C 21.058594 34.78125 21.066406 34.757812 21.035156 34.742188 C 21.007812 34.722656 21.011719 34.675781 21.054688 34.570312 C 21.136719 34.375 21.210938 34.300781 21.320312 34.316406 C 21.367188 34.320312 21.410156 34.304688 21.414062 34.28125 C 21.417969 34.257812 21.425781 34.308594 21.433594 34.386719 C 21.445312 34.464844 21.433594 34.566406 21.414062 34.605469 Z M 21.074219 35.222656 C 21.074219 35.242188 21.066406 35.257812 21.058594 35.257812 C 21.046875 35.257812 21.03125 35.242188 21.019531 35.222656 C 21.007812 35.199219 21.015625 35.183594 21.035156 35.183594 C 21.054688 35.183594 21.074219 35.199219 21.074219 35.222656 Z M 21.074219 35.222656 "/>
<path style=" stroke:none;fill-rule:nonzero;fill:rgb(0%,0%,0%);fill-opacity:1;" d="M 18.292969 33.90625 C 18.179688 33.96875 18.125 34.074219 18.074219 34.378906 C 18.003906 34.761719 17.921875 35 17.867188 35 C 17.835938 35 17.816406 34.96875 17.816406 34.933594 C 17.816406 34.898438 17.769531 34.71875 17.71875 34.535156 C 17.617188 34.179688 17.476562 34 17.308594 34 C 17.140625 34 17.03125 34.324219 17.128906 34.519531 C 17.164062 34.585938 17.179688 34.660156 17.171875 34.6875 C 17.160156 34.714844 17.179688 34.761719 17.207031 34.796875 C 17.242188 34.828125 17.253906 34.882812 17.242188 34.925781 C 17.226562 34.972656 17.238281 35.007812 17.273438 35.023438 C 17.316406 35.035156 17.324219 35.074219 17.3125 35.128906 C 17.296875 35.183594 17.3125 35.21875 17.347656 35.234375 C 17.382812 35.25 17.40625 35.300781 17.40625 35.351562 C 17.40625 35.402344 17.425781 35.445312 17.445312 35.445312 C 17.464844 35.445312 17.480469 35.46875 17.480469 35.5 C 17.480469 35.53125 17.5 35.554688 17.519531 35.554688 C 17.539062 35.554688 17.554688 35.578125 17.554688 35.601562 C 17.554688 35.644531 17.714844 35.789062 17.839844 35.867188 C 17.957031 35.933594 18.371094 35.578125 18.371094 35.410156 C 18.371094 35.375 18.394531 35.332031 18.425781 35.320312 C 18.457031 35.308594 18.480469 35.3125 18.480469 35.324219 C 18.480469 35.339844 18.535156 35.441406 18.605469 35.546875 C 18.679688 35.652344 18.726562 35.742188 18.714844 35.742188 C 18.703125 35.742188 18.722656 35.773438 18.757812 35.816406 C 18.882812 35.953125 19.253906 35.878906 19.371094 35.695312 C 19.453125 35.570312 19.554688 35.332031 19.53125 35.332031 C 19.519531 35.332031 19.53125 35.308594 19.554688 35.277344 C 19.601562 35.222656 19.742188 34.703125 19.742188 34.585938 C 19.742188 34.542969 19.757812 34.476562 19.785156 34.433594 C 19.894531 34.230469 19.847656 34.039062 19.675781 33.949219 C 19.582031 33.898438 19.558594 33.898438 19.457031 33.964844 C 19.34375 34.035156 19.269531 34.1875 19.316406 34.257812 C 19.328125 34.28125 19.324219 34.316406 19.3125 34.339844 C 19.25 34.433594 19.078125 34.976562 19.097656 35.007812 C 19.105469 35.023438 19.089844 35.046875 19.054688 35.0625 C 18.980469 35.089844 18.925781 35.019531 18.925781 34.894531 C 18.925781 34.851562 18.898438 34.804688 18.871094 34.792969 C 18.839844 34.777344 18.824219 34.753906 18.835938 34.738281 C 18.871094 34.679688 18.742188 34.136719 18.664062 34.015625 C 18.625 33.953125 18.554688 33.890625 18.507812 33.875 C 18.402344 33.847656 18.402344 33.84375 18.292969 33.90625 Z M 18.292969 33.90625 "/>
<path style=" stroke:none;fill-rule:nonzero;fill:rgb(0%,0%,0%);fill-opacity:1;" d="M 23.371094 33.894531 C 23.371094 33.90625 23.328125 33.929688 23.277344 33.941406 C 23.101562 33.984375 22.933594 34.179688 22.910156 34.378906 C 22.90625 34.390625 22.894531 34.414062 22.882812 34.429688 C 22.863281 34.445312 22.851562 34.496094 22.851562 34.539062 C 22.851562 34.589844 22.835938 34.632812 22.820312 34.648438 C 22.773438 34.675781 22.773438 35.035156 22.820312 35.035156 C 22.835938 35.035156 22.851562 35.085938 22.851562 35.140625 C 22.851562 35.199219 22.886719 35.277344 22.925781 35.316406 C 22.964844 35.351562 23 35.402344 23 35.433594 C 23 35.492188 23.246094 35.644531 23.351562 35.65625 C 23.621094 35.675781 23.851562 35.660156 23.851562 35.621094 C 23.851562 35.605469 23.878906 35.605469 23.90625 35.617188 C 23.953125 35.632812 23.964844 35.683594 23.960938 35.820312 C 23.953125 35.921875 23.9375 36.011719 23.917969 36.023438 C 23.902344 36.035156 23.890625 36.089844 23.890625 36.152344 C 23.890625 36.222656 23.871094 36.257812 23.832031 36.257812 C 23.804688 36.257812 23.78125 36.269531 23.785156 36.285156 C 23.789062 36.320312 23.75 36.429688 23.707031 36.519531 C 23.691406 36.546875 23.605469 36.601562 23.523438 36.628906 C 23.351562 36.6875 23.25 36.660156 23.226562 36.535156 C 23.214844 36.464844 23.289062 36.1875 23.339844 36.132812 C 23.394531 36.0625 23.375 35.894531 23.300781 35.851562 C 23.25 35.824219 23.21875 35.824219 23.203125 35.851562 C 23.191406 35.871094 23.144531 35.890625 23.105469 35.890625 C 23.007812 35.890625 22.824219 36.078125 22.792969 36.210938 C 22.777344 36.265625 22.75 36.332031 22.738281 36.355469 C 22.679688 36.429688 22.6875 36.769531 22.753906 36.871094 C 22.871094 37.042969 22.96875 37.121094 23.078125 37.117188 C 23.148438 37.117188 23.199219 37.140625 23.222656 37.1875 C 23.25 37.242188 23.277344 37.25 23.324219 37.226562 C 23.363281 37.207031 23.464844 37.191406 23.554688 37.191406 C 23.660156 37.195312 23.773438 37.167969 23.863281 37.117188 C 23.9375 37.074219 24 37.046875 24 37.058594 C 24 37.113281 24.234375 36.777344 24.300781 36.628906 C 24.320312 36.578125 24.363281 36.496094 24.386719 36.445312 C 24.410156 36.394531 24.429688 36.324219 24.425781 36.296875 C 24.421875 36.265625 24.433594 36.210938 24.453125 36.179688 C 24.488281 36.105469 24.507812 35.179688 24.472656 35.125 C 24.460938 35.105469 24.4375 34.941406 24.425781 34.757812 C 24.378906 34.136719 24.375 34.132812 24.09375 33.957031 C 23.964844 33.878906 23.898438 33.863281 23.65625 33.863281 C 23.5 33.863281 23.371094 33.878906 23.371094 33.894531 Z M 23.851562 34.402344 C 24 34.683594 23.699219 35.210938 23.457031 35.101562 C 23.308594 35.035156 23.277344 34.628906 23.40625 34.507812 C 23.449219 34.46875 23.480469 34.457031 23.480469 34.46875 C 23.480469 34.484375 23.5 34.476562 23.527344 34.453125 C 23.550781 34.425781 23.589844 34.421875 23.636719 34.449219 C 23.691406 34.476562 23.703125 34.46875 23.703125 34.40625 C 23.703125 34.316406 23.800781 34.3125 23.851562 34.402344 Z M 23.851562 34.402344 "/>
<path style=" stroke:none;fill-rule:nonzero;fill:rgb(0%,0%,0%);fill-opacity:1;" d="M 15.503906 34.324219 C 15.492188 34.34375 15.507812 34.359375 15.535156 34.359375 C 15.566406 34.359375 15.59375 34.34375 15.59375 34.324219 C 15.59375 34.3125 15.578125 34.296875 15.558594 34.296875 C 15.535156 34.296875 15.515625 34.3125 15.503906 34.324219 Z M 15.503906 34.324219 "/>
<path style=" stroke:none;fill-rule:nonzero;fill:rgb(0%,0%,0%);fill-opacity:1;" d="M 26.800781 34.5 C 26.746094 34.53125 26.667969 34.554688 26.632812 34.554688 C 26.601562 34.554688 26.519531 34.59375 26.449219 34.640625 C 26.167969 34.820312 26.117188 34.84375 26.027344 34.824219 C 25.972656 34.816406 25.878906 34.75 25.820312 34.679688 C 25.753906 34.613281 25.660156 34.542969 25.605469 34.535156 C 25.496094 34.503906 25.347656 34.5625 25.34375 34.636719 C 25.34375 34.664062 25.328125 34.726562 25.320312 34.777344 C 25.300781 34.847656 25.3125 34.894531 25.367188 34.941406 C 25.410156 34.980469 25.445312 35.035156 25.445312 35.058594 C 25.445312 35.128906 25.621094 35.242188 25.851562 35.3125 C 26.023438 35.363281 26.074219 35.367188 26.167969 35.328125 C 26.230469 35.304688 26.289062 35.285156 26.304688 35.289062 C 26.316406 35.292969 26.347656 35.269531 26.371094 35.242188 C 26.394531 35.210938 26.449219 35.183594 26.484375 35.183594 C 26.527344 35.183594 26.554688 35.167969 26.554688 35.148438 C 26.554688 35.125 26.582031 35.109375 26.609375 35.109375 C 26.640625 35.109375 26.667969 35.097656 26.667969 35.078125 C 26.667969 35.058594 26.699219 35.050781 26.742188 35.0625 C 26.78125 35.074219 26.816406 35.066406 26.816406 35.042969 C 26.816406 35.023438 26.859375 34.992188 26.917969 34.96875 C 26.992188 34.949219 27.046875 34.957031 27.132812 35 C 27.195312 35.035156 27.328125 35.078125 27.4375 35.09375 L 27.625 35.117188 L 27.648438 34.984375 C 27.667969 34.890625 27.660156 34.835938 27.613281 34.796875 C 27.582031 34.761719 27.554688 34.722656 27.554688 34.710938 C 27.554688 34.679688 27.320312 34.558594 27.136719 34.484375 C 27 34.429688 26.929688 34.433594 26.800781 34.5 Z M 26.800781 34.5 "/>
<path style=" stroke:none;fill-rule:nonzero;fill:rgb(0%,0%,0%);fill-opacity:1;" d="M 17.816406 34.742188 C 17.816406 34.757812 17.832031 34.777344 17.855469 34.777344 C 17.875 34.777344 17.882812 34.757812 17.871094 34.742188 C 17.859375 34.71875 17.839844 34.703125 17.828125 34.703125 C 17.820312 34.703125 17.816406 34.71875 17.816406 34.742188 Z M 17.816406 34.742188 "/>
<path style=" stroke:none;fill-rule:nonzero;fill:rgb(0%,0%,0%);fill-opacity:1;" d="M 24.65625 35.347656 C 24.632812 35.402344 24.660156 35.445312 24.710938 35.445312 C 24.75 35.445312 24.75 35.34375 24.707031 35.320312 C 24.6875 35.308594 24.667969 35.320312 24.65625 35.347656 Z M 24.65625 35.347656 "/>
<path style=" stroke:none;fill-rule:nonzero;fill:rgb(0%,0%,0%);fill-opacity:1;" d="M 18.480469 35.792969 C 18.480469 35.824219 18.5 35.851562 18.519531 35.851562 C 18.539062 35.851562 18.554688 35.835938 18.554688 35.820312 C 18.554688 35.796875 18.539062 35.769531 18.519531 35.757812 C 18.5 35.75 18.480469 35.761719 18.480469 35.792969 Z M 18.480469 35.792969 "/>
<path style=" stroke:none;fill-rule:nonzero;fill:rgb(0%,0%,0%);fill-opacity:1;" d="M 23.777344 35.785156 C 23.777344 35.800781 23.792969 35.816406 23.8125 35.816406 C 23.832031 35.816406 23.855469 35.800781 23.867188 35.785156 C 23.878906 35.765625 23.863281 35.75 23.832031 35.75 C 23.804688 35.75 23.777344 35.765625 23.777344 35.785156 Z M 23.777344 35.785156 "/>
<path style=" stroke:none;fill-rule:nonzero;fill:rgb(0%,0%,0%);fill-opacity:1;" d="M 18.59375 35.902344 C 18.59375 35.910156 18.621094 35.941406 18.660156 35.964844 C 18.714844 36.015625 18.71875 36.011719 18.671875 35.953125 C 18.621094 35.894531 18.59375 35.875 18.59375 35.902344 Z M 18.59375 35.902344 "/>
<path style=" stroke:none;fill-rule:nonzero;fill:rgb(0%,0%,0%);fill-opacity:1;" d="M 23.832031 37.40625 C 23.820312 37.425781 23.828125 37.445312 23.847656 37.445312 C 23.871094 37.445312 23.890625 37.425781 23.890625 37.40625 C 23.890625 37.386719 23.882812 37.371094 23.875 37.371094 C 23.863281 37.371094 23.84375 37.386719 23.832031 37.40625 Z M 23.832031 37.40625 "/>
<path style=" stroke:none;fill-rule:nonzero;fill:rgb(0%,0%,0%);fill-opacity:1;" d="M 18.78125 37.613281 C 18.78125 37.65625 18.792969 37.667969 18.804688 37.636719 C 18.816406 37.609375 18.8125 37.578125 18.800781 37.566406 C 18.789062 37.550781 18.777344 37.574219 18.78125 37.613281 Z M 18.78125 37.613281 "/>
<path style=" stroke:none;fill-rule:nonzero;fill:rgb(0%,0%,0%);fill-opacity:1;" d="M 10.242188 37.816406 C 10.25 37.832031 10.269531 37.851562 10.28125 37.851562 C 10.289062 37.851562 10.296875 37.832031 10.296875 37.816406 C 10.296875 37.792969 10.277344 37.777344 10.253906 37.777344 C 10.238281 37.777344 10.230469 37.792969 10.242188 37.816406 Z M 10.242188 37.816406 "/>
<path style=" stroke:none;fill-rule:nonzero;fill:rgb(0%,0%,0%);fill-opacity:1;" d="M 16.332031 39.238281 C 16.332031 39.246094 16.359375 39.261719 16.394531 39.273438 C 16.421875 39.285156 16.4375 39.28125 16.425781 39.257812 C 16.402344 39.222656 16.332031 39.207031 16.332031 39.238281 Z M 16.332031 39.238281 "/>
</g>
</svg>
